<svg width="181" height="54" viewBox="0 0 181 54" fill="none" xmlns="http://www.w3.org/2000/svg">
<path d="M16.828 18.844C16.548 18.5453 16.2587 18.256 15.96 17.976C15.6613 17.6773 15.1853 17.2387 14.532 16.66L3.50001 6.57999H3.44401V15.82C3.44401 16.4547 3.60267 16.968 3.92001 17.36C4.25601 17.7333 4.82534 17.9387 5.62801 17.976V18.62H0.448005V17.976C0.989339 17.9387 1.38134 17.7333 1.62401 17.36C1.86667 16.968 1.98801 16.4547 1.98801 15.82V2.8C1.98801 1.88533 1.84801 1.30666 1.56801 1.06399C1.30667 0.802661 0.793339 0.662661 0.0280053 0.643995V-5.48363e-06H3.38801C3.66801 0.354661 3.96667 0.671994 4.28401 0.951994C4.60134 1.23199 4.96534 1.56799 5.37601 1.95999L16.52 12.04H16.576V2.8C16.576 2.16533 16.4173 1.65199 16.1 1.25999C15.7827 0.867994 15.2133 0.662661 14.392 0.643995V-5.48363e-06H19.572V0.643995C19.0307 0.662661 18.6387 0.867994 18.396 1.25999C18.1533 1.65199 18.032 2.16533 18.032 2.8V15.82C18.032 16.3427 18.032 16.8467 18.032 17.332C18.0507 17.7987 18.0693 18.3027 18.088 18.844H16.828ZM23.0464 18.62V17.976C23.5877 17.9387 23.9797 17.7987 24.2224 17.556C24.4651 17.3133 24.5864 16.7347 24.5864 15.82V2.8C24.5864 1.88533 24.4464 1.30666 24.1664 1.06399C23.9051 0.802661 23.3917 0.662661 22.6264 0.643995V-5.48363e-06H36.3744V3.91999H35.7304C35.6931 3.11733 35.4131 2.46399 34.8904 1.95999C34.3864 1.45599 33.6024 1.20399 32.5384 1.20399H30.2984C29.9064 1.20399 29.5984 1.30666 29.3744 1.512C29.1691 1.71733 29.0664 2.14666 29.0664 2.8V8.31599C29.2157 8.20399 29.3931 8.12933 29.5984 8.09199C29.8224 8.05466 30.0837 8.03599 30.3824 8.03599H33.0984C33.6584 8.03599 34.1251 7.87733 34.4984 7.55999C34.8717 7.24266 35.0677 6.80399 35.0864 6.24399H35.7304V11.004H35.0864C35.0677 10.3133 34.8717 9.84666 34.4984 9.60399C34.1251 9.36133 33.6584 9.23999 33.0984 9.23999H30.4384C29.9344 9.23999 29.5797 9.32399 29.3744 9.49199C29.1691 9.66 29.0664 9.98666 29.0664 10.472V15.82C29.0664 16.4733 29.2064 16.9027 29.4864 17.108C29.7851 17.3133 30.3544 17.416 31.1944 17.416H33.8544C34.9744 17.416 35.8611 17.08 36.5144 16.408C37.1677 15.736 37.5317 14.9333 37.6064 14H38.2504L38.0264 18.62H23.0464ZM40.5431 -5.48363e-06H56.5031V4.62H55.8591C55.7471 3.61199 55.4485 2.79066 54.9631 2.156C54.4778 1.52133 53.6471 1.20399 52.4711 1.20399H50.7631V15.82C50.7631 16.7347 50.9031 17.3133 51.1831 17.556C51.4631 17.7987 51.9765 17.9387 52.7231 17.976V18.62H44.7431V17.976C45.2845 17.9387 45.6765 17.7987 45.9191 17.556C46.1618 17.3133 46.2831 16.7347 46.2831 15.82V1.20399H44.5471C43.4085 1.20399 42.5871 1.52133 42.0831 2.156C41.5978 2.79066 41.2991 3.61199 41.1871 4.62H40.5431V-5.48363e-06ZM59.6039 18.62V17.976C60.1452 17.9387 60.5372 17.7987 60.7799 17.556C61.0226 17.3133 61.1439 16.7347 61.1439 15.82V2.8C61.1439 1.88533 61.0039 1.30666 60.7239 1.06399C60.4626 0.802661 59.9492 0.662661 59.1839 0.643995V-5.48363e-06H67.1639V0.643995C66.6226 0.662661 66.2306 0.802661 65.9879 1.06399C65.7452 1.30666 65.6239 1.88533 65.6239 2.8V7.75599C65.7732 7.64399 65.9506 7.56933 66.1559 7.53199C66.3799 7.49466 66.6412 7.47599 66.9399 7.47599H72.2319C72.7359 7.47599 73.0906 7.39199 73.2959 7.22399C73.5012 7.05599 73.6039 6.71999 73.6039 6.21599V2.8C73.6039 1.88533 73.4639 1.30666 73.1839 1.06399C72.9226 0.802661 72.4092 0.662661 71.6439 0.643995V-5.48363e-06H79.6239V0.643995C79.0826 0.662661 78.6906 0.802661 78.4479 1.06399C78.2052 1.30666 78.0839 1.88533 78.0839 2.8V15.82C78.0839 16.7347 78.2239 17.3133 78.5039 17.556C78.7839 17.7987 79.2972 17.9387 80.0439 17.976V18.62H72.0639V17.976C72.6052 17.9387 72.9972 17.7987 73.2399 17.556C73.4826 17.3133 73.6039 16.7347 73.6039 15.82V8.37199C73.4546 8.50266 73.2679 8.58666 73.0439 8.62399C72.8199 8.66133 72.5679 8.67999 72.2879 8.67999H66.9959C66.4919 8.67999 66.1372 8.76399 65.9319 8.93199C65.7266 9.09999 65.6239 9.42666 65.6239 9.91199V15.82C65.6239 16.7347 65.7639 17.3133 66.0439 17.556C66.3239 17.7987 66.8372 17.9387 67.5839 17.976V18.62H59.6039ZM0.420005 52.62V51.976C0.961339 51.9387 1.35334 51.7987 1.59601 51.556C1.83867 51.3133 1.96001 50.7347 1.96001 49.82V36.8C1.96001 35.8853 1.82001 35.3067 1.54001 35.064C1.27867 34.8027 0.765339 34.6627 5.28991e-06 34.644V34H1.96001C3.00534 34 3.92001 33.9907 4.70401 33.972C5.48801 33.9347 6.26267 33.9067 7.02801 33.888C7.79334 33.8693 8.66134 33.86 9.63201 33.86C11.8533 33.86 13.496 34.2147 14.56 34.924C15.624 35.6333 16.156 36.576 16.156 37.752C16.156 38.816 15.8013 39.7027 15.092 40.412C14.4013 41.1213 13.4493 41.6067 12.236 41.868V41.924C13.9533 42.1107 15.2787 42.624 16.212 43.464C17.164 44.2853 17.64 45.3867 17.64 46.768C17.64 47.832 17.36 48.812 16.8 49.708C16.24 50.5853 15.3813 51.2947 14.224 51.836C13.0667 52.3587 11.5733 52.62 9.74401 52.62H0.420005ZM6.44001 42.26C6.68267 42.092 6.90667 41.9893 7.11201 41.952C7.33601 41.896 7.59734 41.8587 7.89601 41.84C8.99734 41.7467 9.85601 41.364 10.472 40.692C11.088 40.02 11.396 39.1333 11.396 38.032C11.396 37.2853 11.2467 36.6973 10.948 36.268C10.668 35.8387 10.304 35.5307 9.85601 35.344C9.42667 35.1573 8.96934 35.064 8.48401 35.064C7.68134 35.064 7.14001 35.176 6.86001 35.4C6.58001 35.6053 6.44001 36.072 6.44001 36.8V42.26ZM8.09201 51.416C9.26801 51.416 10.2013 51.192 10.892 50.744C11.6013 50.296 12.1053 49.7267 12.404 49.036C12.7213 48.3267 12.88 47.58 12.88 46.796C12.88 45.4707 12.488 44.5093 11.704 43.912C10.92 43.3147 9.93067 43.016 8.73601 43.016C7.98934 43.016 7.42001 43.1467 7.02801 43.408C6.63601 43.6507 6.44001 44.0707 6.44001 44.668V49.82C6.44001 50.4733 6.54267 50.9027 6.74801 51.108C6.95334 51.3133 7.40134 51.416 8.09201 51.416ZM30.6797 33.58C32.005 33.58 33.237 33.804 34.3757 34.252C35.5144 34.7 36.5224 35.3533 37.3997 36.212C38.277 37.052 38.9584 38.0693 39.4437 39.264C39.929 40.4587 40.1717 41.7933 40.1717 43.268C40.1717 44.7427 39.929 46.0773 39.4437 47.272C38.9584 48.4667 38.277 49.4933 37.3997 50.352C36.541 51.2107 35.533 51.8733 34.3757 52.34C33.2184 52.8067 31.977 53.04 30.6517 53.04C29.345 53.04 28.113 52.816 26.9557 52.368C25.817 51.92 24.809 51.276 23.9317 50.436C23.0544 49.5773 22.373 48.5507 21.8877 47.356C21.4024 46.1613 21.1597 44.8267 21.1597 43.352C21.1597 41.8773 21.4024 40.5427 21.8877 39.348C22.373 38.1533 23.045 37.1267 23.9037 36.268C24.781 35.4093 25.7984 34.7467 26.9557 34.28C28.113 33.8133 29.3544 33.58 30.6797 33.58ZM31.2397 51.836C32.2104 51.836 32.9757 51.5187 33.5357 50.884C34.0957 50.2307 34.497 49.3347 34.7397 48.196C35.001 47.0573 35.1317 45.732 35.1317 44.22C35.1317 41.1773 34.665 38.844 33.7317 37.22C32.817 35.596 31.6037 34.784 30.0917 34.784C29.1397 34.784 28.3744 35.1013 27.7957 35.736C27.2357 36.3707 26.825 37.2667 26.5637 38.424C26.321 39.5627 26.1997 40.888 26.1997 42.4C26.1997 45.4427 26.657 47.776 27.5717 49.4C28.505 51.024 29.7277 51.836 31.2397 51.836ZM53.4975 33.58C54.8228 33.58 56.0548 33.804 57.1935 34.252C58.3322 34.7 59.3402 35.3533 60.2175 36.212C61.0948 37.052 61.7762 38.0693 62.2615 39.264C62.7468 40.4587 62.9895 41.7933 62.9895 43.268C62.9895 44.7427 62.7468 46.0773 62.2615 47.272C61.7762 48.4667 61.0948 49.4933 60.2175 50.352C59.3588 51.2107 58.3508 51.8733 57.1935 52.34C56.0362 52.8067 54.7948 53.04 53.4695 53.04C52.1628 53.04 50.9308 52.816 49.7735 52.368C48.6348 51.92 47.6268 51.276 46.7495 50.436C45.8722 49.5773 45.1908 48.5507 44.7055 47.356C44.2202 46.1613 43.9775 44.8267 43.9775 43.352C43.9775 41.8773 44.2202 40.5427 44.7055 39.348C45.1908 38.1533 45.8628 37.1267 46.7215 36.268C47.5988 35.4093 48.6162 34.7467 49.7735 34.28C50.9308 33.8133 52.1722 33.58 53.4975 33.58ZM54.0575 51.836C55.0282 51.836 55.7935 51.5187 56.3535 50.884C56.9135 50.2307 57.3148 49.3347 57.5575 48.196C57.8188 47.0573 57.9495 45.732 57.9495 44.22C57.9495 41.1773 57.4828 38.844 56.5495 37.22C55.6348 35.596 54.4215 34.784 52.9095 34.784C51.9575 34.784 51.1922 35.1013 50.6135 35.736C50.0535 36.3707 49.6428 37.2667 49.3815 38.424C49.1388 39.5627 49.0175 40.888 49.0175 42.4C49.0175 45.4427 49.4748 47.776 50.3895 49.4C51.3228 51.024 52.5455 51.836 54.0575 51.836ZM83.4273 53.04C82.5313 53.04 81.7753 52.9 81.1593 52.62C80.562 52.34 80.0487 51.976 79.6193 51.528C79.2087 51.08 78.826 50.5947 78.4713 50.072L74.3833 43.828C74.178 43.5107 74.01 43.3147 73.8793 43.24C73.7673 43.1467 73.6273 43.1 73.4593 43.1C73.2727 43.1 73.114 43.1747 72.9833 43.324C72.8713 43.4733 72.8153 43.716 72.8153 44.052V49.82C72.8153 50.7347 72.9553 51.3133 73.2353 51.556C73.5153 51.7987 74.0287 51.9387 74.7753 51.976V52.62H66.7953V51.976C67.3367 51.9387 67.7287 51.7987 67.9713 51.556C68.214 51.3133 68.3353 50.7347 68.3353 49.82V36.8C68.3353 35.8853 68.1953 35.3067 67.9153 35.064C67.654 34.8027 67.1407 34.6627 66.3753 34.644V34H74.3553V34.644C73.814 34.6627 73.422 34.8027 73.1793 35.064C72.9367 35.3067 72.8153 35.8853 72.8153 36.8V41.98H72.8713L79.1433 36.8C79.4607 36.5387 79.7033 36.3053 79.8713 36.1C80.0393 35.876 80.1233 35.6707 80.1233 35.484C80.1233 34.98 79.5727 34.7 78.4713 34.644V34H84.8273V34.644C84.2673 34.7373 83.754 34.9333 83.2873 35.232C82.8207 35.5307 82.3167 35.9133 81.7753 36.38L77.7153 39.74C77.566 39.8707 77.4913 40.0013 77.4913 40.132C77.51 40.2627 77.5847 40.44 77.7153 40.664L83.5673 49.736C84.1087 50.5947 84.6033 51.1827 85.0513 51.5C85.4993 51.8173 85.9007 51.976 86.2553 51.976V52.62C85.882 52.7507 85.434 52.8533 84.9113 52.928C84.4073 53.0027 83.9127 53.04 83.4273 53.04ZM88.5741 52.62V51.976C89.1154 51.9387 89.5074 51.7987 89.7501 51.556C89.9927 51.3133 90.1141 50.7347 90.1141 49.82V36.8C90.1141 35.8853 89.9741 35.3067 89.6941 35.064C89.4327 34.8027 88.9194 34.6627 88.1541 34.644V34H90.1141C91.4767 34 92.7554 33.9813 93.9501 33.944C95.1447 33.888 96.0407 33.86 96.6381 33.86C98.5794 33.86 100.11 34.0747 101.23 34.504C102.369 34.9333 103.181 35.5027 103.666 36.212C104.17 36.9027 104.422 37.668 104.422 38.508C104.422 39.4787 104.105 40.4027 103.47 41.28C102.854 42.1573 101.865 42.8387 100.502 43.324C99.1581 43.7907 97.3754 43.94 95.1541 43.772V42.792C96.1621 42.8293 96.9927 42.652 97.6461 42.26C98.2994 41.8493 98.7754 41.308 99.0741 40.636C99.3914 39.964 99.5501 39.2453 99.5501 38.48C99.5501 37.4533 99.2607 36.632 98.6821 36.016C98.1034 35.3813 97.3007 35.064 96.2741 35.064C95.6581 35.064 95.2194 35.176 94.9581 35.4C94.7154 35.6053 94.5941 36.072 94.5941 36.8V49.82C94.5941 50.4173 94.6501 50.8747 94.7621 51.192C94.8927 51.4907 95.1167 51.696 95.4341 51.808C95.7701 51.9013 96.2367 51.9573 96.8341 51.976V52.62H88.5741ZM117.22 33.58C118.546 33.58 119.778 33.804 120.916 34.252C122.055 34.7 123.063 35.3533 123.94 36.212C124.818 37.052 125.499 38.0693 125.984 39.264C126.47 40.4587 126.712 41.7933 126.712 43.268C126.712 44.7427 126.47 46.0773 125.984 47.272C125.499 48.4667 124.818 49.4933 123.94 50.352C123.082 51.2107 122.074 51.8733 120.916 52.34C119.759 52.8067 118.518 53.04 117.192 53.04C115.886 53.04 114.654 52.816 113.496 52.368C112.358 51.92 111.35 51.276 110.472 50.436C109.595 49.5773 108.914 48.5507 108.428 47.356C107.943 46.1613 107.7 44.8267 107.7 43.352C107.7 41.8773 107.943 40.5427 108.428 39.348C108.914 38.1533 109.586 37.1267 110.444 36.268C111.322 35.4093 112.339 34.7467 113.496 34.28C114.654 33.8133 115.895 33.58 117.22 33.58ZM117.78 51.836C118.751 51.836 119.516 51.5187 120.076 50.884C120.636 50.2307 121.038 49.3347 121.28 48.196C121.542 47.0573 121.672 45.732 121.672 44.22C121.672 41.1773 121.206 38.844 120.272 37.22C119.358 35.596 118.144 34.784 116.632 34.784C115.68 34.784 114.915 35.1013 114.336 35.736C113.776 36.3707 113.366 37.2667 113.104 38.424C112.862 39.5627 112.74 40.888 112.74 42.4C112.74 45.4427 113.198 47.776 114.112 49.4C115.046 51.024 116.268 51.836 117.78 51.836ZM130.658 52.62V51.976C131.2 51.9387 131.592 51.7987 131.834 51.556C132.077 51.3133 132.198 50.7347 132.198 49.82V36.8C132.198 35.8853 132.058 35.3067 131.778 35.064C131.517 34.8027 131.004 34.6627 130.238 34.644V34H138.218V34.644C137.677 34.6627 137.285 34.8027 137.042 35.064C136.8 35.3067 136.678 35.8853 136.678 36.8V49.82C136.678 50.7347 136.818 51.3133 137.098 51.556C137.378 51.7987 137.892 51.9387 138.638 51.976V52.62H130.658ZM158.588 52.844C158.308 52.5453 158.019 52.256 157.72 51.976C157.421 51.6773 156.945 51.2387 156.292 50.66L145.26 40.58H145.204V49.82C145.204 50.4547 145.363 50.968 145.68 51.36C146.016 51.7333 146.585 51.9387 147.388 51.976V52.62H142.208V51.976C142.749 51.9387 143.141 51.7333 143.384 51.36C143.627 50.968 143.748 50.4547 143.748 49.82V36.8C143.748 35.8853 143.608 35.3067 143.328 35.064C143.067 34.8027 142.553 34.6627 141.788 34.644V34H145.148C145.428 34.3547 145.727 34.672 146.044 34.952C146.361 35.232 146.725 35.568 147.136 35.96L158.28 46.04H158.336V36.8C158.336 36.1653 158.177 35.652 157.86 35.26C157.543 34.868 156.973 34.6627 156.152 34.644V34H161.332V34.644C160.791 34.6627 160.399 34.868 160.156 35.26C159.913 35.652 159.792 36.1653 159.792 36.8V49.82C159.792 50.3427 159.792 50.8467 159.792 51.332C159.811 51.7987 159.829 52.3027 159.848 52.844H158.588ZM164.106 34H180.066V38.62H179.422C179.31 37.612 179.012 36.7907 178.526 36.156C178.041 35.5213 177.21 35.204 176.034 35.204H174.326V49.82C174.326 50.7347 174.466 51.3133 174.746 51.556C175.026 51.7987 175.54 51.9387 176.286 51.976V52.62H168.306V51.976C168.848 51.9387 169.24 51.7987 169.482 51.556C169.725 51.3133 169.846 50.7347 169.846 49.82V35.204H168.11C166.972 35.204 166.15 35.5213 165.646 36.156C165.161 36.7907 164.862 37.612 164.75 38.62H164.106V34Z" fill="#CC9600"/>
</svg>
